<svg version="1.1" xmlns="http://www.w3.org/2000/svg" style="display: block;" viewBox="0 0 2048 1365" width="1536" height="1024" preserveAspectRatio="none">
<defs>
	<linearGradient id="Gradient1" gradientUnits="userSpaceOnUse" x1="1082.73" y1="774.691" x2="1041.7" y2="681.987">
		<stop class="stop0" offset="0" stop-opacity="1" stop-color="rgb(1,100,175)"/>
		<stop class="stop1" offset="1" stop-opacity="1" stop-color="rgb(3,62,112)"/>
	</linearGradient>
	<linearGradient id="Gradient2" gradientUnits="userSpaceOnUse" x1="668.011" y1="808.447" x2="965.857" y2="940.558">
		<stop class="stop0" offset="0" stop-opacity="1" stop-color="rgb(1,99,176)"/>
		<stop class="stop1" offset="1" stop-opacity="1" stop-color="rgb(1,167,217)"/>
	</linearGradient>
	<linearGradient id="Gradient3" gradientUnits="userSpaceOnUse" x1="1070.38" y1="466.945" x2="1434.07" y2="391.356">
		<stop class="stop0" offset="0" stop-opacity="1" stop-color="rgb(2,76,157)"/>
		<stop class="stop1" offset="1" stop-opacity="1" stop-color="rgb(1,191,229)"/>
	</linearGradient>
	<linearGradient id="Gradient4" gradientUnits="userSpaceOnUse" x1="591.917" y1="525.638" x2="1064.12" y2="465.271">
		<stop class="stop0" offset="0" stop-opacity="1" stop-color="rgb(7,34,60)"/>
		<stop class="stop1" offset="1" stop-opacity="1" stop-color="rgb(5,56,99)"/>
	</linearGradient>
</defs>
<path transform="translate(0,0)" fill="rgb(5,39,68)" d="M 870.596 299.289 C 871.895 299.202 873.195 299.148 874.496 299.128 L 1074.41 299.234 L 1130.66 299.088 C 1162.7 298.986 1197.11 298.573 1213.93 331.258 C 1224.87 352.528 1221.07 403.483 1221.06 428.166 L 1221.03 582.745 C 1211.71 578.747 1205.76 575.729 1196.87 570.801 L 1196.92 398.078 C 1156.11 397.535 1114.06 398.054 1073.17 398.051 L 842.257 398.156 L 842.332 451.288 L 842.339 570.938 C 842.346 590.78 841.517 611.589 843.603 631.214 C 844.764 642.129 859.587 656.362 870.633 657.125 C 895.57 658.849 921.24 658.122 946.325 658.118 L 1114.63 658.18 L 1122.36 682.196 C 1052.7 680.618 982.101 683.171 912.365 682.129 C 897.983 681.914 881.39 683.245 867.375 681.297 C 858.083 679.921 849.246 676.377 841.578 670.953 C 808.509 647.486 814.03 615.95 813.98 580.308 L 813.951 496.451 L 813.98 404.084 C 813.996 387.068 813.132 368.75 814.97 351.91 C 818.352 320.925 841.815 303.926 870.596 299.289 z M 842.15 387.297 L 1169.27 387.332 C 1177.33 387.356 1188.2 387.076 1196.04 387.541 C 1196.98 369.574 1199.35 350.131 1186.51 335.721 C 1179.71 328.098 1170.14 323.507 1159.94 322.97 C 1142.13 322.072 1119.24 322.688 1101.12 322.706 L 993.635 322.781 L 914.104 322.726 C 902.199 322.722 881.243 322.145 870.009 323.297 C 836.8 334.919 842.801 358.518 842.15 387.297 z"/>
<path transform="translate(0,0)" fill="rgb(5,39,68)" d="M 971.699 349.41 C 975.685 348.631 979.781 350.066 982.411 353.161 C 985.04 356.257 985.793 360.531 984.38 364.338 C 982.967 368.146 979.608 370.894 975.596 371.524 C 969.549 372.474 963.855 368.407 962.793 362.379 C 961.731 356.352 965.692 350.583 971.699 349.41 z"/>
<path transform="translate(0,0)" fill="rgb(5,39,68)" d="M 925.752 350.409 C 929.459 348.587 933.869 348.959 937.22 351.375 C 940.57 353.791 942.314 357.859 941.756 361.951 C 941.197 366.044 938.427 369.495 934.551 370.925 C 928.971 372.985 922.755 370.312 920.41 364.845 C 918.066 359.379 920.414 353.033 925.752 350.409 z"/>
<path transform="translate(0,0)" fill="rgb(5,39,68)" d="M 879.501 350.479 C 883.237 348.765 887.615 349.261 890.873 351.768 C 894.131 354.275 895.732 358.381 895.031 362.431 C 894.331 366.482 891.444 369.811 887.534 371.079 C 881.954 372.887 875.933 370.032 873.802 364.568 C 871.671 359.103 874.17 352.926 879.501 350.479 z"/>
<path transform="translate(0,0)" fill="url(#Gradient4)" d="M 928.264 747.219 C 800.484 720.615 687.029 647.759 609.671 542.634 C 595.65 523.582 580.853 500.842 584.833 476.033 C 593.113 424.421 689.625 332.906 732.879 301.598 C 813.009 243.597 906.559 214.057 1005.2 212.396 C 1021.08 212.129 1039.42 210.411 1055.06 212.909 C 1042.87 213.738 1019.47 212.57 1009.99 213.898 C 1017.56 214.347 1025.14 214.555 1032.73 214.521 C 1030.54 221.683 1028.8 234.253 1022.8 238.221 C 1016.75 242.225 987.843 238.77 984.336 241.675 L 985.762 242.258 C 973.614 244.293 960.734 244.98 948.077 246.798 C 822.959 264.768 719.009 337.007 645.805 438.306 C 611.516 485.754 619.307 500.891 655.016 546.187 C 729.471 640.633 816.707 700.825 935.62 724.419 L 938.581 726.906 C 938.709 733.595 932.346 742.065 928.264 747.219 z"/>
<path transform="translate(0,0)" fill="rgb(5,39,68)" d="M 1684.91 820.656 C 1686.25 825.831 1685.28 864.155 1685.27 871.537 L 1685.36 1016.9 L 1649.53 1016.62 C 1631.31 1003.21 1606.46 981.046 1588.44 965.984 L 1478.74 875.031 L 1478.94 1016.84 L 1434.75 1016.76 C 1432.01 1016.74 1433.09 1017.22 1431.22 1015.79 C 1430.44 1012.47 1430.9 972.359 1430.9 965.81 L 1430.83 820.775 L 1479.67 820.842 C 1511.78 848.429 1544.27 875.569 1577.14 902.255 C 1598.96 920.325 1621.78 939.827 1644.18 957.008 C 1644.8 913.824 1645.45 863.698 1644.18 820.844 L 1684.91 820.656 z"/>
<path transform="translate(0,0)" fill="url(#Gradient3)" d="M 1055.06 212.909 C 1187.49 219.598 1303.46 279.741 1392.48 376.786 C 1414.35 400.627 1456.16 449.996 1453.39 484.003 C 1449.42 532.657 1388.8 594.988 1354.79 625.777 C 1337.51 641.415 1284.11 682.703 1265.07 690.178 L 1245.68 669.891 C 1302.34 638.477 1356.78 585.115 1392.84 531.736 C 1409.36 507.277 1423.81 481.263 1405.39 453.516 C 1344.86 362.373 1249.64 287.462 1143.67 257.826 C 1087.82 242.207 1041.56 241.532 985.762 242.258 L 984.336 241.675 C 987.843 238.77 1016.75 242.225 1022.8 238.221 C 1028.8 234.253 1030.54 221.683 1032.73 214.521 C 1025.14 214.555 1017.56 214.347 1009.99 213.898 C 1019.47 212.57 1042.87 213.738 1055.06 212.909 z"/>
<path transform="translate(0,0)" fill="url(#Gradient2)" d="M 967.238 820.137 C 986.086 820.724 1004.95 820.689 1023.79 820.031 L 1009.25 837.803 C 974.45 884.778 936.642 930.208 901.572 977.065 C 891.725 990.223 881.273 1004.25 870.819 1016.82 C 852.448 1017.4 830.514 1016.81 811.86 1016.64 C 806.42 1011.26 794.632 995.387 789.498 988.785 L 750.022 938.378 L 691.333 863.468 C 683.313 853.252 664.637 830.515 658.891 820.259 C 678.067 820.722 697.129 820.116 716.246 820.558 C 724.263 828.924 747.732 860.682 755.762 870.999 C 784.627 907.834 813.266 944.847 841.677 982.033 C 860.281 954.825 889.507 920.33 909.903 893.226 C 924.05 874.426 952.431 836.008 967.238 820.137 z"/>
<path transform="translate(0,0)" fill="rgb(5,39,68)" d="M 503.637 820.936 L 547.319 820.638 C 592.612 885.784 641.667 952.195 688.152 1016.76 L 637.867 1016.74 L 529.831 866.155 L 525.137 859.834 C 502.718 890.002 480.054 919.987 457.146 949.787 C 440.6 971.592 423.422 995.372 406.457 1016.65 C 389.571 1017.29 369.698 1016.85 352.68 1016.83 C 371.67 994.766 394.703 962.948 412.712 939.445 L 503.637 820.936 z"/>
<path transform="translate(0,0)" fill="rgb(3,163,212)" d="M 1331.19 820.174 L 1390.78 820.08 C 1374.08 835.324 1357.54 850.743 1341.16 866.335 C 1316.99 887.228 1292.55 913.832 1268.67 935.533 C 1259.64 943.738 1250.81 953.432 1241.33 961.1 L 1241.17 1016.96 C 1226.48 1016.73 1211.79 1016.7 1197.11 1016.87 C 1197.39 998.34 1197.36 979.805 1197.04 961.275 C 1180.47 945.593 1164.24 928.848 1147.48 912.933 C 1126.2 892.932 1105.07 872.771 1084.09 852.449 C 1077.27 845.887 1056.97 827.335 1052.77 820.323 C 1068.7 821.625 1095.07 820.503 1111.39 820.18 C 1146.07 852.966 1188.14 890.221 1221.17 923.731 C 1226.34 919.235 1231.24 913.936 1236.35 909.286 C 1268.18 880.315 1298.76 848.392 1331.19 820.174 z"/>
<path transform="translate(0,0)" fill="rgb(5,39,68)" d="M 1020.5 443.675 C 1025.39 444.125 1024.55 443.337 1027.94 446.006 C 1030.67 451.721 1029.56 460.623 1029.32 467.262 C 1058.78 473.456 1080.39 488.432 1084.71 519.906 C 1091.81 519.767 1113.27 517.751 1116 525.732 C 1111.26 532.286 1092.61 530.463 1085.31 530.252 C 1080.64 562.546 1061.97 582.499 1029.27 587.821 C 1029.55 597.446 1031.32 602.523 1023.03 608.403 C 1016.36 603.084 1018.26 595.861 1018.68 588.047 C 985.115 585.766 960.838 564.588 958.74 530.232 C 952.189 530.407 930.643 532.242 928.232 524.667 C 932.201 518.131 951.898 519.819 958.504 519.969 C 964.165 487.817 986.003 469.368 1018.35 467.625 C 1018.31 460.435 1017.81 450.033 1020.5 443.675 z M 1028.67 577.207 C 1055.76 573.379 1074.76 548.497 1071.32 521.35 C 1067.87 494.202 1043.26 474.855 1016.07 477.917 C 998.13 479.937 982.671 491.457 975.609 508.066 C 968.546 524.676 970.973 543.801 981.961 558.12 C 992.949 572.438 1010.8 579.732 1028.67 577.207 z"/>
<path transform="translate(0,0)" fill="rgb(1,81,149)" d="M 1013.47 504.246 C 1028.35 501.633 1042.51 511.635 1045.02 526.53 C 1047.53 541.426 1037.43 555.515 1022.51 557.92 C 1007.75 560.302 993.826 550.322 991.342 535.573 C 988.857 520.824 998.74 506.834 1013.47 504.246 z"/>
<path transform="translate(0,0)" fill="rgb(5,39,68)" d="M 1099.57 564.019 C 1149.62 579.906 1199.8 595.354 1250.12 610.361 C 1237.87 637.655 1228.11 632.684 1200.31 637.448 C 1209.06 649.007 1258.91 698.317 1261.16 703.47 L 1259.38 706.168 C 1252.26 713.171 1245 720.031 1237.6 726.743 C 1219.96 714.796 1191.05 688.446 1174.15 673.771 C 1171.07 682.276 1165.26 694.938 1161.25 703.16 C 1156.77 704.72 1149.69 705.969 1144.86 706.974 C 1139.24 693.087 1133.13 670.717 1128.36 655.608 C 1118.61 625.128 1109.01 594.598 1099.57 564.019 z"/>
<path transform="translate(0,0)" fill="rgb(3,163,212)" d="M 389.182 1069.31 C 417.759 1068.28 452.123 1069.12 481.065 1069.12 L 657.084 1069.11 L 1191.12 1069.12 L 1504.84 1069.14 L 1599.61 1069.07 C 1612.4 1069.05 1638.21 1068.26 1650.18 1069.5 C 1651.48 1071.75 1650.88 1074.41 1650.67 1077.11 L 702.34 1077.02 L 475.974 1077.04 L 419.94 1077.17 C 413.427 1077.19 395.467 1077.68 389.96 1076.47 C 388.47 1073.52 389.043 1072.89 389.182 1069.31 z"/>
<path transform="translate(0,0)" fill="url(#Gradient1)" d="M 935.62 724.419 C 985.251 732.24 1016.47 734.273 1066.8 731.249 C 1080.26 730.414 1093.65 728.817 1106.92 726.466 C 1116.32 724.716 1121.55 722.307 1131.18 722.892 C 1148.14 723.923 1174.72 715.15 1191.18 710.541 C 1196.27 715.529 1198.96 718.241 1203.41 723.927 C 1151.25 749.965 1058.03 761.492 1000.13 757.51 C 977.184 755.932 951.146 751.396 928.264 747.219 C 932.346 742.065 938.709 733.595 938.581 726.906 L 935.62 724.419 z"/>
<path transform="translate(0,0)" fill="rgb(5,39,68)" d="M 806.007 402.909 C 807.973 405.696 807.026 564.096 806.995 578.124 C 796.701 569.426 790.324 563.46 781.439 553.328 C 748.924 515.497 742.057 474.89 775.088 433.246 C 784.424 421.475 794.82 412.82 806.007 402.909 z"/>
<path transform="translate(0,0)" fill="rgb(5,39,68)" d="M 1232.27 403.512 C 1232.88 403.851 1233.36 404.097 1233.94 404.548 C 1256.91 422.495 1280.35 449.295 1283.67 479.16 C 1287.01 509.102 1275.21 529.384 1257.98 551.348 C 1249.62 560.961 1241.87 568.409 1232.32 576.73 L 1232.27 403.512 z"/>
<path transform="translate(0,0)" fill="rgb(5,39,68)" d="M 635.646 200.44 C 657.895 199.426 686.226 200.266 708.932 200.296 L 709.006 213.22 C 687.733 212.777 661.94 211.932 640.721 213.516 C 635.845 213.881 633.304 216.957 630.652 220.667 C 629.084 229.599 629.877 269.843 629.939 280.897 L 616.945 280.848 C 617.216 256.872 608.047 207.481 635.646 200.44 z"/>
<path transform="translate(0,0)" fill="rgb(5,39,68)" d="M 617.691 657.465 L 629.764 657.214 C 630.012 671.601 623.216 723.914 643.488 723.341 C 664.768 722.74 687.267 722.961 708.63 722.984 L 708.439 735.399 C 683.217 734.696 656.186 736.16 631.311 734.902 C 626.495 731.964 622.731 729.298 619.68 724.597 C 615.588 718.293 616.286 661.707 617.691 657.465 z"/>
<path transform="translate(0,0)" fill="rgb(3,163,212)" d="M 1343.12 200.267 C 1363.74 200.08 1385.34 199.148 1405.76 200.848 C 1414.24 201.964 1422.01 209.976 1422.45 218.382 C 1423.51 238.906 1422.9 260.489 1422.84 281.043 L 1409.98 281.141 C 1410.06 261.04 1410.04 240.94 1409.91 220.84 C 1406.61 216.419 1403.99 213.859 1398.28 213.482 C 1380.37 212.302 1361.41 213.057 1343.47 213.29 L 1343.12 200.267 z"/>
<path transform="translate(0,0)" fill="rgb(3,163,212)" d="M 1410.01 657.377 L 1422.91 657.272 C 1422.62 671.691 1423.24 686.47 1423.21 700.924 C 1423.17 717.522 1423.76 725.317 1408.94 734.91 C 1393.87 735.986 1369.5 735.203 1353.75 735.167 C 1349.52 735.181 1346.92 735.741 1343.6 733.866 C 1341.9 730.789 1342.71 726.46 1342.94 722.697 L 1386.97 723.197 C 1393.27 723.26 1401.49 723.677 1406.18 718.603 C 1413.26 710.948 1410.06 668.748 1410.01 657.377 z"/>
<path transform="translate(0,0)" fill="rgb(145,148,151)" d="M 1627.86 1121.07 C 1639.21 1120.52 1643.16 1123.34 1648.92 1132.37 C 1649.65 1146.34 1649.45 1151.73 1635.94 1157.97 C 1617.89 1159.2 1614.44 1148.36 1615.01 1133.05 C 1619.26 1125.89 1620.46 1124.76 1627.86 1121.07 z M 1634.7 1152.39 C 1646.68 1142.13 1645.51 1127.04 1628.72 1127.07 C 1617.34 1136.01 1619.9 1151.47 1634.7 1152.39 z"/>
<path transform="translate(0,0)" fill="rgb(145,148,151)" d="M 407.848 1121.25 C 415.66 1121.46 423.147 1120.98 430.304 1124.71 C 442.48 1131.06 439.936 1142.59 433.752 1152.26 C 426.197 1157.94 416.989 1156.86 407.77 1156.87 C 408.091 1145.42 407.838 1132.8 407.848 1121.25 z M 414.455 1151.64 C 420.695 1151.13 422.679 1151.36 428.165 1148.55 C 438.481 1135.65 429.256 1127 414.958 1126.96 C 414.018 1135.15 413.849 1143.41 414.455 1151.64 z"/>
<path transform="translate(0,0)" fill="rgb(5,39,68)" d="M 896.275 574.416 C 901.009 575.018 899.667 574.269 902.954 576.683 C 906.359 582.966 904.348 598.38 905.04 607.675 C 913.802 608.273 933.83 605.738 939.263 611.348 C 939.411 615.312 939.606 613.784 937.133 617.893 C 911.963 619.296 889.068 625.364 893.296 592.402 C 894.122 585.966 891.98 580.269 896.275 574.416 z"/>
<path transform="translate(0,0)" fill="rgb(145,148,151)" d="M 1116.28 1121.41 C 1116.96 1121.4 1117.64 1121.39 1118.32 1121.39 C 1133.05 1121.32 1157.58 1126.76 1136.43 1143.27 C 1139.34 1147.06 1146.15 1152.42 1144.27 1156.92 L 1139.64 1157.9 C 1134.83 1153.63 1131.98 1144.85 1125.44 1144.28 C 1123.14 1146.73 1123.87 1151.54 1123.89 1155.49 C 1121.91 1157.79 1123.1 1157 1120.16 1157.89 L 1118.58 1156.91 C 1114.98 1150.81 1116.3 1129.86 1116.28 1121.41 z M 1135.47 1136.67 C 1136.88 1133.05 1136.96 1134.35 1136.1 1131.06 C 1132.37 1127.54 1127.82 1127.76 1122.88 1127.8 C 1123.63 1132.61 1123.37 1136.42 1125.97 1139.86 C 1129.43 1140.48 1132.29 1138.5 1135.47 1136.67 z"/>
<path transform="translate(0,0)" fill="rgb(5,39,68)" d="M 1105.01 429.404 C 1114.34 429.323 1137.13 426.335 1143.5 433.503 C 1148.88 439.547 1146.91 453.264 1146.98 460.909 C 1147.03 465.548 1145.29 467.461 1141.94 470.387 C 1131.62 464.578 1137.53 454.766 1135.61 444.995 C 1132.96 431.526 1101.7 447.19 1100 434.031 C 1102.16 430.333 1100.94 431.601 1105.01 429.404 z"/>
<path transform="translate(0,0)" fill="rgb(145,148,151)" d="M 1661.81 1121.48 C 1665.15 1121.47 1668.93 1121.36 1672.23 1121.62 C 1688.12 1122.89 1696.48 1132.48 1680.67 1143.23 C 1683.33 1146.7 1690.81 1152.85 1688.86 1156.76 L 1683.41 1157.08 C 1680.28 1154.33 1676.04 1146.57 1669.27 1140.51 C 1669.23 1144.73 1669.8 1153.64 1667.5 1156.75 C 1664.07 1156.9 1664.44 1157.43 1662.03 1155.95 C 1660.7 1149.42 1661.62 1128.64 1661.81 1121.48 z M 1678.45 1139.39 C 1681.27 1137.08 1681.81 1136.75 1682.8 1133.29 C 1681.51 1127.2 1677.32 1126.99 1671.83 1127.11 L 1668.49 1128.17 C 1667.13 1133.05 1667.55 1137.11 1672.35 1139.88 C 1674.34 1139.77 1676.51 1139.71 1678.45 1139.39 z"/>
<path transform="translate(0,0)" fill="rgb(145,148,151)" d="M 991.824 1120.7 C 1002.81 1121.47 1010.71 1135.74 1016.12 1144.63 C 1015.97 1138.81 1015.54 1127.44 1016.45 1121.98 L 1018.27 1120.88 C 1027.82 1122.02 1024.83 1154.81 1021.2 1158.36 C 1013.29 1154.56 1003.63 1138.58 998.213 1130.67 C 998.378 1136.85 999.2 1151.41 997.611 1156.46 C 995.006 1157.09 995.088 1156.98 992.654 1156.23 C 991.144 1149.4 991.773 1128.32 991.824 1120.7 z"/>
<path transform="translate(0,0)" fill="rgb(5,39,68)" d="M 902.227 429.403 C 910.571 429.267 934.582 425.991 936.782 434.957 C 931.943 443.008 916.24 436.733 908.38 440.062 C 905.745 441.178 906.07 441.928 904.831 444.805 C 904.745 450.435 907.013 469.27 898.839 468.372 C 890.956 461.987 888.817 433.565 902.227 429.403 z"/>
<path transform="translate(0,0)" fill="rgb(145,148,151)" d="M 1374.06 1145.63 C 1373.87 1138.36 1373.79 1131.09 1373.84 1123.82 C 1375.66 1120.78 1374.55 1121.61 1377.77 1120.76 L 1379.27 1121.86 C 1380.78 1129.09 1380.05 1149.27 1379.96 1157.27 C 1370.06 1156.99 1362.04 1141.35 1355.61 1133.26 C 1355.89 1139.31 1357.1 1150.37 1354.9 1155.39 C 1352.12 1157.43 1353.5 1157.05 1349.99 1156.73 C 1347.91 1151.58 1349.41 1127.27 1349.83 1120.54 C 1359.4 1121.72 1368.01 1137.64 1374.06 1145.63 z"/>
<path transform="translate(0,0)" fill="rgb(145,148,151)" d="M 1510.86 1121.13 C 1517.92 1120.74 1526.94 1122.13 1529.75 1129.74 C 1526.52 1130.93 1494.44 1119.61 1507.42 1148.04 C 1509.48 1152.56 1523.76 1153.44 1524.05 1145.2 C 1519.98 1141.06 1519.75 1145.58 1513.62 1140.47 C 1516.96 1136.18 1525.52 1137.72 1530.73 1137.92 C 1532.63 1184.58 1468.5 1140.38 1510.86 1121.13 z"/>
<path transform="translate(0,0)" fill="rgb(145,148,151)" d="M 493.739 1121.53 C 501.412 1121.49 507.9 1120.56 514.62 1124.91 C 525.889 1132.2 519.29 1141.67 508.749 1143.63 C 506.364 1143.87 503.983 1144.15 501.607 1144.47 C 499.352 1147.93 502.245 1151.58 500.48 1156.5 C 497.439 1157.88 498.679 1157.85 495.801 1156.99 C 490.664 1150.49 493.626 1130.36 493.739 1121.53 z M 508.752 1139.46 C 511.254 1137.55 511.296 1137.46 512.496 1134.48 C 511.962 1127.39 507.65 1126.81 501.613 1126.1 C 499.072 1130.9 497.451 1135.59 501.954 1139.44 C 505.098 1139.89 505.553 1139.81 508.752 1139.46 z"/>
<path transform="translate(0,0)" fill="rgb(145,148,151)" d="M 1406.87 1120.66 L 1412.07 1121.36 C 1415.6 1126.09 1427.22 1152.13 1423.03 1156.88 C 1415.77 1156.8 1419.05 1151.26 1412.89 1146.95 C 1393.94 1147.3 1405.8 1151.41 1397.64 1156.64 C 1394.18 1156.99 1394.26 1157.62 1392.22 1156.09 C 1393.93 1150.72 1404.28 1125.17 1406.87 1120.66 z M 1410.48 1146.48 C 1416.29 1141.89 1412.31 1135.41 1409.1 1129.7 C 1406.7 1134.68 1402.95 1139.66 1405.48 1144.82 L 1410.48 1146.48 z"/>
<path transform="translate(0,0)" fill="rgb(145,148,151)" d="M 460.643 1120.74 L 464.964 1121.32 C 469.608 1125.36 481.808 1151.67 477.897 1157.34 L 475.854 1157.15 C 471.507 1154.13 472.648 1152.66 468.936 1147.62 L 468.49 1147.02 C 464.664 1146.9 461.45 1146.4 458.016 1147.89 C 456.647 1151.26 455.389 1154.57 452.38 1156.6 C 448.84 1156.86 449.531 1157.36 447.052 1155.84 C 451.401 1143.49 455.363 1132.87 460.643 1120.74 z M 465.562 1145.46 L 467.488 1143.7 C 467.282 1140.44 465.413 1128.66 463.121 1126.59 C 461.556 1130.89 458.471 1137.78 459.179 1141.96 C 461.159 1145.27 461.618 1144.49 465.562 1145.46 z"/>
<path transform="translate(0,0)" fill="rgb(145,148,151)" d="M 375.541 1120.77 C 376.208 1120.88 376.874 1120.98 377.541 1121.08 C 384.562 1121.43 394.981 1154.32 393.94 1158.04 C 386.127 1156.32 386.842 1150.2 381.852 1147 C 372.301 1147.23 371.3 1145.37 368.606 1155.26 C 365.59 1157.26 366.167 1156.61 361.95 1156.81 C 360.804 1152.76 372.892 1126.08 375.541 1120.77 z M 377.263 1145.39 L 381.542 1144.08 C 383.39 1140.01 379.354 1131.79 378.146 1126.59 C 374.755 1131.17 372.282 1136.6 372.627 1142.38 C 373.906 1144.93 373.576 1144.12 377.263 1145.39 z"/>
<path transform="translate(0,0)" fill="rgb(145,148,151)" d="M 1207.44 1120.76 L 1211.57 1121.3 C 1216.11 1124.41 1227.9 1151.84 1224.44 1157.27 C 1218.84 1156.48 1218.69 1151.29 1214.78 1146.99 C 1211.82 1147.05 1208.86 1147.13 1205.9 1147.23 C 1202.04 1149.8 1203.16 1151.05 1200.45 1156.05 C 1197.55 1157.29 1197.72 1157.29 1194.65 1156.64 L 1193.88 1155.01 C 1198.17 1143.5 1202.69 1132.08 1207.44 1120.76 z M 1211.61 1144.91 L 1214.12 1143.65 C 1214.07 1140.45 1211.9 1130.54 1209.23 1128.63 C 1207.76 1132.66 1204.9 1138.46 1205.23 1142.15 C 1207.41 1145.11 1207.73 1144.72 1211.61 1144.91 z"/>
<path transform="translate(0,0)" fill="rgb(145,148,151)" d="M 1553.84 1120.94 L 1558.39 1121.43 C 1562.53 1124.78 1574.94 1151.86 1571.09 1157.04 C 1567.79 1156.82 1568.99 1157.31 1566.31 1155.46 C 1564.91 1151.86 1564.5 1149.71 1561.42 1147.2 C 1556.84 1146.96 1553.29 1146.25 1549.95 1148.78 C 1549.21 1151.98 1549.15 1153.76 1546.87 1156.09 C 1543.93 1157.15 1543.79 1157.28 1540.84 1156.63 C 1540.43 1153.99 1551.82 1126.04 1553.84 1120.94 z M 1559.61 1145.3 C 1561.95 1141.14 1559.63 1133.64 1556.27 1130.61 C 1554.67 1134.2 1551.76 1139.42 1552.25 1142.98 C 1554.58 1145.69 1554.48 1144.93 1558.95 1145.25 L 1559.61 1145.3 z"/>
<path transform="translate(0,0)" fill="rgb(145,148,151)" d="M 873.798 1120.44 C 876.171 1120.92 877.608 1120.72 879.081 1122.63 C 881.921 1126.32 892.799 1153.68 892.366 1156.74 C 882.147 1157.97 886.952 1152.11 879.898 1147.12 C 878.46 1147.08 871.079 1146.91 870.335 1147.3 C 867.548 1148.74 868.002 1155.7 862.842 1158.28 C 859.917 1157.38 861.018 1158.2 859.264 1155.96 C 861.818 1148.78 870.625 1126 873.798 1120.44 z M 874.856 1145.55 C 876.846 1144.73 878.552 1144.66 879.443 1142.74 C 881.412 1138.48 877.926 1132.64 874.895 1129.43 C 873.656 1133.95 870.592 1140.67 870.922 1144.23 C 872.817 1145.27 872.715 1145.21 874.856 1145.55 z"/>
<path transform="translate(0,0)" fill="rgb(145,148,151)" d="M 786.158 1121.09 L 787.375 1121.09 C 792.788 1121.14 796.94 1121.48 800.948 1125.55 C 802.205 1128.81 802.348 1127.72 801.325 1130.33 C 795.504 1131.21 786.218 1122.9 783.475 1130.22 C 788.532 1137.59 806.159 1138.75 804.197 1150.27 C 800.713 1154.97 795.697 1156.81 790.261 1158.14 C 784.305 1157.5 774.951 1155.91 775.37 1148.22 C 781.939 1146.13 787.573 1155.3 795.865 1149.59 C 795.477 1141.39 774.589 1141.51 775.049 1129.03 C 777.334 1124.61 781.721 1122.63 786.158 1121.09 z"/>
<path transform="translate(0,0)" fill="rgb(145,148,151)" d="M 1078.12 1121.29 C 1084.85 1121.53 1100.76 1119.35 1103.77 1124.91 C 1100.1 1130.45 1093.81 1125.48 1086.05 1127.46 C 1084.86 1129.84 1085.41 1131.96 1085.52 1134.94 C 1089.76 1138.27 1095.81 1134.15 1100.23 1136.92 C 1101.26 1139.91 1101.41 1138.9 1100.41 1141.26 C 1096.84 1142.74 1089.52 1141.92 1085.28 1141.72 C 1085.23 1144.63 1084.8 1148.18 1086.1 1150.62 C 1091.43 1152.35 1096.16 1150.35 1102.51 1151.28 C 1103.91 1154.15 1104.04 1153.28 1103.4 1155.71 C 1100.77 1157.22 1082.65 1156.87 1078.18 1156.97 C 1078 1145.22 1078.14 1133.08 1078.12 1121.29 z"/>
<path transform="translate(0,0)" fill="rgb(145,148,151)" d="M 816.15 1120.3 C 817.891 1120.54 819.184 1120.91 820.865 1121.35 C 825.108 1128.82 817.305 1156.7 833.337 1151.33 C 843.81 1147.82 835.796 1129.77 839.988 1121.38 C 843.318 1121.35 842.894 1120.81 844.964 1122.4 L 845.127 1125.75 C 845.311 1142.48 849.408 1153.58 830.249 1158.61 C 813.085 1153.54 815.441 1145.85 815.753 1130.36 C 815.82 1127.05 816.015 1123.62 816.15 1120.3 z"/>
<path transform="translate(0,0)" fill="rgb(145,148,151)" d="M 644.08 1121.34 C 650.358 1121.81 668.432 1118.97 669.24 1125.65 C 664.817 1130.39 657.67 1124.67 651.051 1128.39 C 649.68 1131.56 649.926 1131.98 650.346 1135.56 C 653.287 1137.42 658.686 1135.66 664.066 1136.39 L 665.149 1137.99 L 664.616 1140.6 C 661.282 1142.97 654.471 1142.06 649.853 1142 C 650.219 1145.03 650.363 1148.15 651.571 1150.89 C 655.555 1152.25 662.801 1151.25 667.964 1151.42 L 669.258 1152.97 L 668.864 1155.36 C 666.211 1157.39 648.657 1156.81 643.801 1156.9 C 643.542 1145.05 643.635 1133.19 644.08 1121.34 z"/>
<path transform="translate(0,0)" fill="rgb(145,148,151)" d="M 1248.82 1121.09 C 1255.25 1120.77 1265.39 1121.89 1267.26 1129.58 C 1263.19 1131.71 1254.94 1126.86 1247.41 1128.57 C 1234.98 1138.39 1247.12 1158.05 1258.91 1150.01 C 1262 1147.84 1263.31 1146.68 1267.07 1147.73 L 1267.45 1149.68 C 1258.74 1167.94 1226.9 1154.04 1236.59 1132.89 C 1240.07 1125.3 1241.45 1124.36 1248.82 1121.09 z"/>
<path transform="translate(0,0)" fill="rgb(145,148,151)" d="M 1283.55 1121.44 C 1288.1 1121.57 1302.44 1120.92 1305.54 1122.3 L 1306.55 1125.06 C 1302.73 1129.18 1295.76 1125.41 1289.51 1128.67 C 1287.84 1131.93 1288.41 1131.16 1288.68 1135.4 C 1294.03 1138.98 1301.33 1132.2 1303.81 1139.6 C 1301.03 1145.07 1293.08 1138.59 1287.47 1143.17 L 1288.37 1149.93 C 1292.83 1153.4 1301.51 1149.94 1306.33 1152.73 L 1306.4 1155.42 C 1304.16 1157.35 1286.44 1156.69 1281.94 1156.71 C 1281.87 1146.76 1281.34 1132.08 1282.18 1122.53 L 1283.55 1121.44 z"/>
<path transform="translate(0,0)" fill="rgb(145,148,151)" d="M 723.641 1150.57 C 726.777 1142.34 729.855 1120.53 739.988 1121.35 C 741.129 1124.05 739.514 1126.34 738.3 1129.86 C 735.593 1136.47 730.567 1153.55 725.835 1156.93 C 716.176 1156.64 708.293 1128.82 707.216 1121.1 C 709.478 1121.14 710.136 1121.29 712.307 1121.67 C 718.112 1127 721.532 1142.51 723.641 1150.57 z"/>
<path transform="translate(0,0)" fill="rgb(145,148,151)" d="M 1448.5 1148.15 C 1451.02 1140.72 1455.42 1123.96 1461.31 1120.03 C 1466.2 1121.1 1463.68 1126.18 1462.61 1129.25 C 1459.76 1137.53 1455.92 1156.46 1446.07 1156.91 C 1443.15 1154.57 1431.64 1124.49 1432.78 1120.8 C 1437.48 1120.98 1438.48 1121.27 1440.53 1125.73 C 1443.85 1132.93 1446.08 1140.62 1448.5 1148.15 z"/>
<path transform="translate(0,0)" fill="rgb(145,148,151)" d="M 596.317 1121.07 C 598.638 1120.96 599.16 1121.1 601.404 1121.43 C 606.431 1125.44 610.835 1141.38 613.775 1148.84 C 615.589 1141.61 620.071 1123.48 626.898 1120.41 L 628.22 1120.97 C 629.634 1124.57 629.231 1123.35 627.985 1127.89 C 625.051 1134.48 619.975 1152.11 615.76 1156.62 C 606.812 1158.83 597.656 1128.14 596.317 1121.07 z"/>
<path transform="translate(0,0)" fill="rgb(145,148,151)" d="M 1159.51 1121.48 C 1166.82 1121.81 1179.61 1119.42 1184.27 1124.11 L 1184.06 1126.18 C 1178.65 1129.39 1169.34 1124.15 1164.54 1130.71 C 1164.57 1133.73 1165.21 1134.24 1166.9 1136.93 C 1172.71 1140.19 1178.26 1132.88 1183.51 1140.56 C 1178.89 1144.51 1172.88 1143.01 1166.37 1142.57 C 1166.48 1147.02 1167.46 1151.07 1166.15 1155.2 C 1163.18 1157.19 1164.28 1156.61 1160.19 1156.65 C 1157.74 1153.58 1158.91 1126.39 1159.51 1121.48 z"/>
<path transform="translate(0,0)" fill="rgb(145,148,151)" d="M 1037.63 1121.47 C 1045.41 1121.94 1061.72 1118.89 1066.67 1124.2 L 1066.34 1126.79 C 1063.58 1128.42 1059.47 1127.87 1056.03 1127.81 L 1056.1 1147.94 C 1056.13 1150.82 1055.97 1153.01 1055.74 1155.88 L 1053.44 1157.69 C 1051.04 1157.8 1052.01 1158.18 1050.33 1156.81 C 1047.2 1150.81 1048.37 1134.52 1048.51 1127.07 C 1044.77 1127.6 1041.89 1128.35 1038.26 1127.43 C 1036.49 1124.78 1037.06 1125.61 1037.63 1121.47 z"/>
<path transform="translate(0,0)" fill="rgb(3,163,212)" d="M 362.598 1063.4 C 366.21 1061.63 370.494 1061.93 373.816 1064.2 C 377.138 1066.47 378.985 1070.35 378.651 1074.36 C 378.318 1078.36 375.856 1081.88 372.206 1083.57 C 366.649 1086.14 360.059 1083.76 357.426 1078.23 C 354.794 1072.71 357.1 1066.09 362.598 1063.4 z"/>
<path transform="translate(0,0)" fill="rgb(3,163,212)" d="M 1669.94 1063.38 C 1673.58 1061.6 1677.9 1061.93 1681.22 1064.25 C 1684.53 1066.57 1686.33 1070.51 1685.91 1074.53 C 1685.49 1078.56 1682.92 1082.04 1679.19 1083.62 C 1673.64 1085.98 1667.22 1083.49 1664.71 1078 C 1662.21 1072.51 1664.53 1066.03 1669.94 1063.38 z"/>
<path transform="translate(0,0)" fill="rgb(145,148,151)" d="M 1577.71 1121.62 C 1586.81 1121.6 1595.92 1121.66 1605.02 1121.82 C 1606.89 1124.22 1606.36 1122.86 1606.38 1126.14 C 1603.33 1128.88 1601.15 1125.65 1595.51 1127.48 C 1595.46 1133.9 1595.54 1140.33 1595.76 1146.75 C 1595.71 1151.33 1596.52 1153.31 1594.32 1156.64 C 1590.85 1156.95 1591.33 1157.49 1589.19 1155.94 C 1588.11 1148.75 1588.79 1134.92 1588.97 1127.09 C 1584.08 1127.21 1582.18 1128.09 1578.48 1125.95 L 1577.71 1121.62 z"/>
<path transform="translate(0,0)" fill="rgb(145,148,151)" d="M 908.904 1120.92 C 911.668 1120.96 911.952 1120.84 914.342 1122.06 C 918.049 1128.84 915.811 1143.19 915.136 1151.49 C 919.564 1151.57 928.314 1151.02 931.871 1151.88 L 933.365 1154.65 C 929.918 1157.82 914.357 1156.81 908.591 1156.79 L 908.904 1120.92 z"/>
<path transform="translate(0,0)" fill="rgb(145,148,151)" d="M 752.999 1120.86 C 756.151 1121.17 757.924 1120.76 760.005 1122.51 C 761.202 1129.32 760.799 1148.91 760.954 1157.08 C 757.699 1157.08 756.979 1157.11 753.877 1156.2 C 752.421 1151.27 752.956 1127.62 752.999 1120.86 z"/>
<path transform="translate(0,0)" fill="rgb(145,148,151)" d="M 576.462 1120.75 C 578.569 1120.94 580.226 1121.31 582.279 1121.73 C 583.834 1125.98 583.163 1151.38 583.101 1157.72 C 580.839 1157.29 580.134 1157.06 577.935 1156.31 C 574.393 1149.79 576.222 1128.96 576.462 1120.75 z"/>
<path transform="translate(0,0)" fill="rgb(145,148,151)" d="M 968.047 1120.35 L 973.534 1121.53 C 974.894 1123.74 974.685 1152.23 974.765 1156.92 C 971.615 1157.01 971.215 1157.12 968.25 1156.25 C 967.254 1148.17 967.951 1129.25 968.047 1120.35 z"/>
<path transform="translate(0,0)" fill="rgb(145,148,151)" d="M 1476.65 1120.71 L 1482.12 1121.51 C 1484.07 1124.7 1482.96 1152.17 1482.84 1157.99 L 1477.62 1156.57 C 1475.53 1153.16 1476.54 1126.66 1476.65 1120.71 z"/>
<path transform="translate(0,0)" fill="rgb(145,148,151)" d="M 540.34 1127.98 C 542.021 1127.53 545.118 1127.09 546.923 1126.77 C 547.397 1133.54 549.799 1152.28 544.334 1157.08 C 537.788 1155 540.101 1133.63 540.34 1127.98 z"/>
<path transform="translate(0,0)" fill="rgb(145,148,151)" d="M 540.34 1127.98 C 536.678 1126.24 533.857 1128.93 529.08 1125.94 L 528.688 1124.13 C 533.311 1120.39 554.462 1118.83 558.413 1124.89 L 557.95 1126.53 C 554.456 1127.77 550.734 1127.07 546.923 1126.77 C 545.118 1127.09 542.021 1127.53 540.34 1127.98 z"/>
</svg>